HIERARCHY
ROOT Hips
{
	OFFSET -8.665500 -1.496397 44.816700
	CHANNELS 6 Xposition Yposition Zposition Zrotation Xrotation Yrotation
	JOINT Chest
	{
		OFFSET -0.698600 0.806100 5.350899
		CHANNELS 6 Xposition Yposition Zposition Zrotation Xrotation Yrotation
		JOINT Chest2
		{
			OFFSET 0.000000 0.000000 4.409100
			CHANNELS 6 Xposition Yposition Zposition Zrotation Xrotation Yrotation
			JOINT Neck
			{
				OFFSET 0.000000 0.000001 10.248299
				CHANNELS 6 Xposition Yposition Zposition Zrotation Xrotation Yrotation
				JOINT Head
				{
					OFFSET 0.000000 0.000000 2.173897
					CHANNELS 6 Xposition Yposition Zposition Zrotation Xrotation Yrotation
					End Site
					{
						OFFSET 0.000000 0.000001 9.966400
					}
				}
			}
			JOINT LeftCollar
			{
				OFFSET 2.100600 -0.520900 6.016098
				CHANNELS 6 Xposition Yposition Zposition Zrotation Xrotation Yrotation
				JOINT LeftShoulder
				{
					OFFSET 5.536700 0.000000 0.000000
					CHANNELS 6 Xposition Yposition Zposition Zrotation Xrotation Yrotation
					JOINT LeftElbow
					{
						OFFSET 0.000000 -0.000001 -12.362099
						CHANNELS 6 Xposition Yposition Zposition Zrotation Xrotation Yrotation
						JOINT LeftWrist
						{
							OFFSET 0.000000 -0.000001 -10.273201
							CHANNELS 6 Xposition Yposition Zposition Zrotation Xrotation Yrotation
							End Site
							{
								OFFSET 0.000000 -0.000000 -2.173901
							}
						}
					}
				}
			}
			JOINT RightCollar
			{
				OFFSET -2.899500 -1.655900 6.981701
				CHANNELS 6 Xposition Yposition Zposition Zrotation Xrotation Yrotation
				JOINT RightShoulder
				{
					OFFSET -4.387501 0.000000 0.000000
					CHANNELS 6 Xposition Yposition Zposition Zrotation Xrotation Yrotation
					JOINT RightElbow
					{
						OFFSET 0.000000 -0.000001 -10.858101
						CHANNELS 6 Xposition Yposition Zposition Zrotation Xrotation Yrotation
						JOINT RightWrist
						{
							OFFSET 0.000000 -0.000001 -12.079601
							CHANNELS 6 Xposition Yposition Zposition Zrotation Xrotation Yrotation
							End Site
							{
								OFFSET 0.000000 0.000000 -2.173901
							}
						}
					}
				}
			}
		}
	}
	JOINT LeftHip
	{
		OFFSET 2.190800 0.073900 -2.522499
		CHANNELS 6 Xposition Yposition Zposition Zrotation Xrotation Yrotation
		JOINT LeftKnee
		{
			OFFSET 0.000000 -0.000002 -20.305000
			CHANNELS 6 Xposition Yposition Zposition Zrotation Xrotation Yrotation
			JOINT LeftAnkle
			{
				OFFSET 0.000000 -0.000001 -16.771700
				CHANNELS 6 Xposition Yposition Zposition Zrotation Xrotation Yrotation
				End Site
				{
					OFFSET 0.000000 -8.738000 0.000001
				}
			}
		}
	}
	JOINT RightHip
	{
		OFFSET -2.029500 0.054300 -2.705200
		CHANNELS 6 Xposition Yposition Zposition Zrotation Xrotation Yrotation
		JOINT RightKnee
		{
			OFFSET 0.000000 -0.000002 -20.030399
			CHANNELS 6 Xposition Yposition Zposition Zrotation Xrotation Yrotation
			JOINT RightAnkle
			{
				OFFSET 0.000000 -0.000001 -17.032700
				CHANNELS 6 Xposition Yposition Zposition Zrotation Xrotation Yrotation
				End Site
				{
					OFFSET 0.000000 -8.823600 0.000001
				}
			}
		}
	}
}
MOTION
Frames: 10
Frame Time: 0.041667
22.525406 5.750606 41.987396 1430.187408 4.098546 -7.278522 -0.698600 0.806100 5.350901 8.723207 3.262322 12.883473 0.000000 0.000001 4.409094 -17.348127 -2.575947 -1.330009 0.000001 0.000000 10.248298 57.260372 8.405655 -7.871993 0.000002 -0.000001 2.173893 1.514053 1.460738 3.225798 2.100600 -0.520898 6.016109 20.224520 -11.175289 2.965225 5.536694 0.000002 -0.000004 124.700485 221.334138 -319.458002 -0.000000 0.000005 -12.362099 -1390.938955 -19.484033 13.385946 0.000001 0.000001 -10.273200 2724.430665 182.586352 -207.607370 -2.899501 -1.655900 6.981706 3.074902 -2.898745 8.644935 -4.387501 0.000000 0.000006 -910.516344 -549.983443 236.733100 0.000001 -0.000004 -10.858102 169.009712 211.278747 144.845486 -0.000003 0.000000 -12.079607 -160.565398 -187.569248 228.988512 2.190798 0.073897 -2.522493 -496.755068 -153.448328 -162.241295 -0.000003 -0.000007 -20.305010 -796.940680 47.363848 57.660935 0.000000 0.000004 -16.771700 1491.636598 1.100525 28.976220 -2.029500 0.054295 -2.705193 -90.912161 -44.485555 -54.570090 0.000004 -0.000001 -20.030399 -208.585071 50.989350 -158.413875 -0.000002 -0.000001 -17.032701 413.789881 77.134528 -75.102431
22.449402 5.761707 41.952591 1430.651096 4.213681 -7.409343 -0.698602 0.806100 5.350902 8.256613 3.158898 13.024728 0.000000 -0.000000 4.409098 -17.222124 -2.538560 -1.310107 -0.000000 0.000001 10.248301 57.214698 8.455982 -7.809405 0.000001 -0.000002 2.173886 1.515060 1.328695 3.300147 2.100600 -0.520896 6.016100 20.232818 -11.097461 3.060266 5.536695 0.000002 0.000006 124.617334 221.355953 -319.555755 -0.000002 0.000002 -12.362089 -1391.412041 -19.693773 13.291340 -0.000004 -0.000001 -10.273191 2724.969867 182.465416 -207.703184 -2.899503 -1.655898 6.981701 2.906755 -3.097464 8.575114 -4.387496 0.000001 -0.000003 -910.343786 -550.158405 236.754847 -0.000003 -0.000001 -10.858103 168.365092 210.906420 144.333112 0.000001 -0.000001 -12.079602 -160.839549 -187.927136 229.371085 2.190798 0.073899 -2.522493 -496.503116 -153.312188 -161.960342 -0.000003 -0.000006 -20.305006 -798.016189 47.076929 58.334037 -0.000000 0.000005 -16.771700 1491.770142 0.947075 29.138711 -2.029503 0.054296 -2.705200 -91.230878 -44.486105 -54.744922 0.000003 -0.000001 -20.030397 -208.507179 51.126927 -158.661606 -0.000003 -0.000003 -17.032696 414.258924 77.520140 -74.866352
22.374107 5.765405 41.922295 1430.818517 4.243828 -7.506372 -0.698602 0.806098 5.350895 8.095662 3.135398 13.030120 -0.000001 0.000001 4.409104 -16.929558 -2.511530 -1.267597 0.000000 -0.000000 10.248299 57.066610 8.693525 -7.697972 -0.000001 0.000000 2.173898 1.470646 1.143779 3.245558 2.100602 -0.520900 6.016096 19.744443 -10.572448 3.392439 5.536691 0.000002 0.000003 124.111326 221.655075 -320.477011 0.000001 0.000004 -12.362098 -1393.248324 -20.140855 12.897135 -0.000001 0.000000 -10.273205 2726.532833 182.531861 -207.811852 -2.899504 -1.655901 6.981704 2.792874 -3.164151 8.682688 -4.387496 -0.000001 -0.000000 -910.524103 -550.215997 236.701025 0.000003 -0.000002 -10.858098 168.433421 210.948043 144.136444 0.000003 -0.000002 -12.079604 -161.540763 -188.205221 229.789256 2.190799 0.073897 -2.522498 -495.895721 -153.275906 -161.754029 0.000002 -0.000003 -20.305006 -799.253874 46.693533 59.098164 -0.000000 0.000005 -16.771702 1491.988817 0.796603 29.313615 -2.029503 0.054296 -2.705204 -90.965026 -44.573282 -54.619684 -0.000000 0.000000 -20.030394 -208.007646 51.633590 -159.385661 -0.000000 -0.000002 -17.032698 416.167634 78.107755 -75.447970
22.290508 5.771107 41.889698 1431.143306 4.275661 -7.475191 -0.698596 0.806101 5.350896 7.763830 3.120193 12.990444 0.000002 0.000000 4.409100 -16.780035 -2.514831 -1.230481 0.000000 0.000000 10.248301 57.151765 8.685752 -7.741813 0.000002 -0.000000 2.173899 1.316179 1.059084 3.290756 2.100600 -0.520898 6.016104 19.695793 -10.503790 3.315260 5.536695 -0.000000 -0.000003 124.069826 221.846156 -320.496136 -0.000002 0.000000 -12.362100 -1393.854408 -20.356658 12.764358 -0.000001 -0.000002 -10.273196 2726.902865 182.234925 -207.768330 -2.899499 -1.655899 6.981705 2.787585 -3.159905 8.719752 -4.387499 0.000001 -0.000005 -910.357119 -550.707989 236.530762 0.000000 -0.000001 -10.858103 167.606053 210.884536 143.743216 0.000003 -0.000001 -12.079610 -161.985244 -188.712567 229.814665 2.190801 0.073897 -2.522499 -495.624863 -153.102092 -161.692106 -0.000004 -0.000005 -20.305006 -800.258185 46.352187 59.753302 0.000002 0.000005 -16.771702 1492.157004 0.686102 29.447654 -2.029497 0.054297 -2.705201 -90.948593 -44.498331 -54.618291 -0.000000 -0.000003 -20.030399 -207.332113 52.137764 -160.169862 -0.000001 -0.000001 -17.032700 418.209614 78.472043 -76.407045
22.205505 5.777508 41.861092 1431.373238 4.021508 -7.729361 -0.698599 0.806100 5.350902 7.395040 3.621930 13.455431 0.000002 0.000001 4.409110 -16.599772 -2.538573 -1.240253 0.000001 0.000002 10.248300 57.177026 8.334358 -7.851163 0.000002 0.000002 2.173906 1.272207 1.069938 3.324161 2.100601 -0.520897 6.016099 20.003850 -10.976807 3.003078 5.536693 0.000001 0.000001 123.876887 221.915961 -320.156211 -0.000000 0.000001 -12.362100 -1393.793428 -20.245999 12.827200 -0.000002 0.000008 -10.273194 2726.796205 182.371406 -207.581129 -2.899498 -1.655898 6.981697 2.692403 -3.191460 8.292337 -4.387498 -0.000001 0.000000 -910.069322 -551.180748 236.600048 0.000001 -0.000004 -10.858103 167.236649 211.077352 143.828525 0.000002 -0.000001 -12.079605 -162.695284 -188.827984 230.113007 2.190800 0.073895 -2.522501 -495.237783 -153.382662 -161.605404 -0.000002 -0.000009 -20.305002 -801.241951 46.046455 60.330651 0.000001 0.000003 -16.771702 1492.294045 0.625367 29.558829 -2.029501 0.054295 -2.705201 -90.710308 -44.657710 -54.267619 0.000004 -0.000002 -20.030397 -205.983766 52.734805 -161.436329 0.000000 -0.000000 -17.032698 420.769487 78.826209 -77.670439
22.113602 5.778907 41.833199 1431.344934 3.622084 -8.013964 -0.698601 0.806099 5.350899 7.274010 4.276430 13.842587 0.000001 0.000001 4.409101 -16.244177 -2.585715 -1.230132 -0.000001 0.000001 10.248300 56.974757 8.147976 -7.849288 -0.000003 -0.000001 2.173898 1.214724 0.972496 3.297216 2.100599 -0.520900 6.016099 19.824551 -10.963755 2.997544 5.536689 0.000003 0.000006 123.655493 221.919868 -320.378520 -0.000001 0.000007 -12.362096 -1394.526061 -20.394863 12.609740 0.000001 0.000001 -10.273203 2727.448406 182.320097 -207.458813 -2.899504 -1.655900 6.981697 2.608025 -3.063257 8.072074 -4.387501 -0.000001 -0.000002 -910.017795 -551.610012 236.498251 0.000004 -0.000003 -10.858098 166.735545 211.362963 143.789293 -0.000002 -0.000001 -12.079600 -163.534140 -189.218670 230.197866 2.190800 0.073895 -2.522503 -494.878132 -153.748965 -161.726353 0.000001 -0.000005 -20.305006 -801.982617 45.765986 60.860797 0.000000 0.000003 -16.771700 1492.440921 0.595130 29.663945 -2.029501 0.054292 -2.705200 -90.086206 -44.826784 -53.644931 -0.000002 -0.000002 -20.030396 -205.613064 52.937781 -161.819530 0.000003 0.000000 -17.032698 421.645773 78.858864 -78.272417
22.024406 5.776106 41.809597 1431.432688 3.325564 -8.194671 -0.698601 0.806101 5.350898 7.069043 4.744326 14.138755 0.000002 0.000000 4.409103 -15.955877 -2.607507 -1.223543 -0.000000 0.000002 10.248299 56.839219 7.942120 -7.914226 0.000000 -0.000002 2.173901 1.209882 0.899496 3.225186 2.100602 -0.520898 6.016102 19.771818 -11.121220 2.875602 5.536694 0.000002 0.000003 123.517496 221.897615 -320.396142 -0.000003 0.000006 -12.362100 -1393.565573 -20.015883 12.987131 -0.000000 -0.000005 -10.273207 2726.302901 182.142389 -207.467174 -2.899499 -1.655899 6.981700 2.520733 -3.053048 7.853023 -4.387498 -0.000001 0.000001 -909.786989 -552.195878 236.431970 -0.000000 -0.000000 -10.858102 166.647818 211.871006 144.204705 -0.000001 -0.000002 -12.079605 -164.459767 -189.226826 230.263053 2.190797 0.073899 -2.522497 -494.346033 -154.037431 -161.709646 -0.000002 -0.000007 -20.305008 -802.892562 45.592390 61.335843 0.000003 0.000003 -16.771706 1492.494907 0.568261 29.741891 -2.029500 0.054297 -2.705200 -89.572446 -44.931064 -53.119030 0.000000 0.000001 -20.030399 -205.442706 53.063962 -162.068382 -0.000000 -0.000002 -17.032701 421.722462 78.749902 -78.255219
21.923008 5.776206 41.787601 1431.557052 3.081637 -8.394537 -0.698597 0.806098 5.350902 6.818306 5.190981 14.474013 0.000001 0.000002 4.409101 -15.749926 -2.670678 -1.231944 0.000001 0.000001 10.248302 56.805126 7.639569 -8.004399 -0.000001 -0.000001 2.173899 1.194523 0.906131 3.215664 2.100601 -0.520899 6.016102 19.943696 -11.418613 2.663615 5.536693 0.000001 0.000000 123.652433 221.791788 -319.954420 -0.000001 0.000006 -12.362102 -1392.356356 -19.820927 13.347282 0.000000 -0.000002 -10.273211 2725.178816 181.941117 -207.449279 -2.899499 -1.655898 6.981701 2.421432 -2.990628 7.585273 -4.387497 -0.000001 0.000003 -909.407340 -552.698580 236.348642 -0.000001 -0.000000 -10.858107 165.894626 211.982981 144.274373 -0.000000 -0.000001 -12.079609 -164.809132 -189.290087 230.092626 2.190800 0.073892 -2.522499 -494.094300 -154.222693 -161.726517 -0.000002 -0.000007 -20.305008 -803.503727 45.484228 61.742601 -0.000001 0.000004 -16.771704 1492.507147 0.555646 29.824567 -2.029499 0.054294 -2.705197 -89.295216 -44.984988 -52.757781 0.000002 -0.000003 -20.030401 -205.629238 52.913404 -161.917762 0.000004 -0.000001 -17.032696 420.520704 78.463308 -77.530632
21.827305 5.770004 41.772697 1431.579564 2.853834 -8.675873 -0.698600 0.806101 5.350900 6.668458 5.618284 14.876133 0.000003 0.000002 4.409103 -15.538332 -2.738965 -1.232083 -0.000002 0.000001 10.248300 56.731770 7.429840 -8.078451 -0.000002 -0.000002 2.173896 1.282855 0.846220 3.229270 2.100599 -0.520898 6.016101 20.008541 -11.495392 2.666729 5.536691 0.000001 -0.000001 123.716296 221.583945 -319.819127 -0.000001 0.000002 -12.362099 -1392.269039 -19.930661 13.393505 0.000001 0.000007 -10.273203 2725.211383 182.026413 -207.405606 -2.899502 -1.655899 6.981706 2.546228 -2.772957 7.244939 -4.387500 -0.000002 0.000002 -909.612137 -552.504384 236.477869 0.000001 -0.000001 -10.858103 166.566785 212.369692 144.948868 0.000002 -0.000001 -12.079602 -165.140300 -188.774449 229.985310 2.190800 0.073900 -2.522496 -493.696783 -154.497417 -161.689852 0.000001 -0.000013 -20.305010 -804.088774 45.401312 62.104021 0.000002 0.000005 -16.771700 1492.442998 0.623490 29.890277 -2.029501 0.054298 -2.705198 -88.974894 -45.064150 -52.344193 0.000002 -0.000001 -20.030396 -206.388277 52.532976 -161.254769 0.000002 -0.000001 -17.032700 418.632321 78.108356 -76.487573
21.712906 5.762906 41.761093 1431.755073 2.991477 -8.712471 -0.698598 0.806103 5.350899 6.521296 5.444626 14.883599 -0.000002 0.000001 4.409101 -15.357936 -2.771805 -1.216482 0.000001 0.000000 10.248308 56.763298 7.474718 -8.126207 0.000001 0.000001 2.173903 1.164123 0.745912 3.290894 2.100600 -0.520901 6.016105 19.869826 -11.272575 2.811517 5.536693 0.000002 0.000005 123.577670 221.519605 -320.098400 -0.000002 0.000005 -12.362098 -1392.086646 -19.799984 13.450489 0.000000 0.000003 -10.273202 2724.826488 182.093567 -207.329067 -2.899499 -1.655900 6.981704 2.555844 -2.664297 7.201239 -4.387499 0.000000 -0.000000 -909.660768 -552.466135 236.571634 -0.000001 -0.000004 -10.858094 166.521159 212.596113 144.756147 -0.000005 -0.000000 -12.079607 -165.929515 -188.987031 230.479543 2.190800 0.073900 -2.522503 -493.481168 -154.344722 -161.630908 -0.000001 -0.000004 -20.305008 -804.527709 45.248678 62.375842 0.000001 0.000003 -16.771702 1492.440484 0.589921 29.938956 -2.029502 0.054301 -2.705201 -89.053639 -44.902299 -52.420664 0.000003 -0.000000 -20.030401 -207.560788 52.051687 -160.270566 0.000003 -0.000003 -17.032700 416.248858 77.697548 -75.193751
